<svg data-v-0dd9719b="" version="1.0" xmlns="http://www.w3.org/2000/svg" xmlns:xlink="http://www.w3.org/1999/xlink" width="100%" height="100%" viewBox="0 0 340.000000 250.000000" preserveAspectRatio="xMidYMid meet" color-interpolation-filters="sRGB" style="margin: auto;"> <rect data-v-0dd9719b="" x="0" y="0" width="100%" height="100%" fill="#0d082100" fill-opacity="1" class="background">
</rect>  <g data-v-0dd9719b="" fill="#fff" class="basesvg" transform="translate(5.2129974365234375,5.459602355957031)">
<g data-gra="path-name" fill-rule="" class="tp-name" fill="url(#13887c13-5927-4719-a0b9-edf77a441de9)">
  <g transform="scale(5.319999999999975)">
    <g>
    <path d="M4.89-7.11L4.89-24.63Q4.89-25.96 5.03-27.23 5.17-28.5 5.68-29.5 6.19-30.5 7.14-31.12 8.09-31.74 9.71-31.74L9.71-31.74Q11.33-31.74 12.28-31.12 13.23-30.5 13.74-29.5 14.25-28.5 14.39-27.23 14.54-25.96 14.54-24.63L14.54-24.63 14.54-7.11Q14.54-5.78 14.39-4.49 14.25-3.21 13.74-2.21 13.23-1.21 12.28-0.6 11.33 0 9.71 0L9.71 0Q8.09 0 7.14-0.6 6.19-1.21 5.68-2.21 5.17-3.21 5.03-4.49 4.89-5.78 4.89-7.11L4.89-7.11ZM14.6-39.61L14.6-39.61Q14.6-37.17 13.33-35.98 12.06-34.79 9.78-34.79L9.78-34.79Q7.49-34.79 6.22-35.98 4.95-37.17 4.95-39.61L4.95-39.61Q4.95-42.15 6.22-43.29 7.49-44.43 9.78-44.43L9.78-44.43Q12.22-44.43 13.41-43.29 14.6-42.15 14.6-39.61ZM32.25-16.95L32.25-10.92Q32.31-9.93 32.75-9.17L32.75-9.17Q33.13-8.51 33.93-7.97 34.72-7.43 36.25-7.43L36.25-7.43Q37.67-7.43 38.45-7.97 39.23-8.51 39.58-9.17L39.58-9.17Q39.99-9.93 40.05-10.92L40.05-10.92 40.05-16.95Q39.99-18.03 39.58-18.85L39.58-18.85Q39.23-19.58 38.45-20.17 37.67-20.76 36.25-20.76L36.25-20.76Q35.48-20.76 34.93-20.6 34.37-20.44 33.94-20.17 33.52-19.9 33.23-19.55 32.94-19.2 32.75-18.85L32.75-18.85Q32.31-18.03 32.25-16.95L32.25-16.95ZM36.25-44.69L36.25-44.69Q36.98-44.69 38.2-44.61 39.42-44.53 40.82-44.18 42.21-43.83 43.62-43.1 45.04-42.37 46.18-41.04 47.32-39.7 48.04-37.69 48.75-35.67 48.75-32.75L48.75-32.75 48.75-31.93Q48.75-29.96 48.5-28.58 48.24-27.2 47.77-26.25 47.29-25.3 46.62-24.66 45.96-24.03 45.13-23.55L45.13-23.55Q45.96-23.07 46.73-22.44 47.51-21.8 48.1-20.85 48.69-19.9 49.04-18.52 49.38-17.14 49.38-15.17L49.38-15.17 49.38-11.68Q49.38-8.76 48.62-6.74 47.86-4.73 46.64-3.4 45.42-2.06 43.93-1.33 42.43-0.6 40.97-0.25 39.51 0.1 38.24 0.17 36.98 0.25 36.25 0.25L36.25 0.25Q35.52 0.25 34.23 0.17 32.94 0.1 31.44-0.25 29.93-0.6 28.39-1.33 26.85-2.06 25.58-3.4 24.31-4.73 23.52-6.74 22.72-8.76 22.72-11.68L22.72-11.68 22.72-15.17Q22.72-17.14 23.07-18.52 23.42-19.9 24.01-20.85 24.6-21.8 25.37-22.44 26.15-23.07 26.98-23.55L26.98-23.55Q26.15-24.03 25.49-24.66 24.82-25.3 24.34-26.25 23.87-27.2 23.61-28.58 23.36-29.96 23.36-31.93L23.36-31.93 23.36-32.75Q23.36-35.67 24.11-37.69 24.85-39.7 26.04-41.04 27.23-42.37 28.71-43.1 30.18-43.83 31.61-44.18 33.04-44.53 34.28-44.61 35.52-44.69 36.25-44.69ZM32.25-32.82L32.25-30.21Q32.31-29.23 32.75-28.47L32.75-28.47Q33.13-27.8 33.93-27.26 34.72-26.72 36.25-26.72L36.25-26.72Q37.67-26.72 38.45-27.26 39.23-27.8 39.58-28.47L39.58-28.47Q39.99-29.23 40.05-30.21L40.05-30.21 40.05-32.82Q39.99-33.9 39.58-34.72L39.58-34.72Q39.23-35.45 38.45-36.04 37.67-36.63 36.25-36.63L36.25-36.63Q35.48-36.63 34.93-36.47 34.37-36.31 33.94-36.04 33.52-35.77 33.23-35.42 32.94-35.07 32.75-34.72L32.75-34.72Q32.31-33.9 32.25-32.82L32.25-32.82ZM57.13-7.11L57.13-24.63Q57.13-25.96 57.27-27.23 57.41-28.5 57.92-29.5 58.43-30.5 59.38-31.12 60.33-31.74 61.95-31.74L61.95-31.74Q63.57-31.74 64.52-31.12 65.48-30.5 65.98-29.5 66.49-28.5 66.63-27.23 66.78-25.96 66.78-24.63L66.78-24.63 66.78-7.11Q66.78-5.78 66.63-4.49 66.49-3.21 65.98-2.21 65.48-1.21 64.52-0.6 63.57 0 61.95 0L61.95 0Q60.33 0 59.38-0.6 58.43-1.21 57.92-2.21 57.41-3.21 57.27-4.49 57.13-5.78 57.13-7.11L57.13-7.11ZM66.84-39.61L66.84-39.61Q66.84-37.17 65.57-35.98 64.3-34.79 62.02-34.79L62.02-34.79Q59.73-34.79 58.46-35.98 57.19-37.17 57.19-39.61L57.19-39.61Q57.19-42.15 58.46-43.29 59.73-44.43 62.02-44.43L62.02-44.43Q64.46-44.43 65.65-43.29 66.84-42.15 66.84-39.61Z" transform="translate(-4.889999866485596, 44.689998626708984)">
    </path>
  </g> 
</g>
</g> 
</g>
<defs v-gra="od">
  <linearGradient x1="0" y1="1" x2="0" y2="0" id="13887c13-5927-4719-a0b9-edf77a441de9">
    <stop offset="0%" stop-color="#fff">
    </stop>
    <stop offset="100%" stop-color="#fff">
    </stop>
  </linearGradient>
  <filter id="42443b3f1de60f6b6fd3b6a9844b4764" filterUnits="objectBoundingBox">
    <feColorMatrix type="matrix" values="0 0 0 0 0.99609375  0 0 0 0 0.99609375  0 0 0 0 0.99609375  0 0 0 1 0">
    </feColorMatrix>
  </filter>
</defs>
</svg>